<?xml version="1.0" encoding="UTF-8"?>
<svg width="122px" height="94px" xmlns="http://www.w3.org/2000/svg" viewBox="0 0 55.82 55.91">
	<defs>
		<style>
			.cls-1{fill:#76c4d5;}.cls-2{fill:#007496;}
		</style>
	</defs>
	<title>
		Asset 1
	</title>
	<g id="Layer_2" data-name="Layer 2">
		<g id="Layer_1-2" data-name="Layer 1">
			<path class="cls-1" d="M50,20.57c.11.74-.4.22-.4.22-2.12-2.71.36-7.24.36-7.24.32-.52.64-1,1-1.42A27.94,27.94,0,0,0,0,25.83c5.57-2.7,11.64,4,11.64,4L14,32.18h0c7.19,7.17,9.26,7.12,10.3,5.46,0,0,1.45-2.09-1-6.33a7.89,7.89,0,0,1,.28-8.91c8.47-11.51,22,3.13,22,3.13,4.79,4.79,7.82,6.58,9.74,7.08a27.56,27.56,0,0,0,.4-4.66,28,28,0,0,0-1.69-9.59C50.42,17.09,49.9,20.09,50,20.57Z" />
			<path class="cls-2" d="M37.09,34.14h0c-5.65-5.63-9-7.23-10.88-7.24a1.5,1.5,0,0,0-1.49,1.83c.28,1.42,5.39,8.1-.51,14-8.27,7-17.15-3.59-17.15-3.59C4.3,36.6,1,32.69.57,34A27.95,27.95,0,0,0,52,42.08C44.85,42.51,37.09,34.14,37.09,34.14Z" />
		</g>
	</g>
</svg>
